<?xml version="1.0" encoding="utf-8"?>
<!-- Generator: Adobe Illustrator 23.0.3, SVG Export Plug-In . SVG Version: 6.00 Build 0)  -->
<svg version="1.1" id="Layer_1" xmlns="http://www.w3.org/2000/svg" xmlns:xlink="http://www.w3.org/1999/xlink" x="0px" y="0px"
	 viewBox="0 0 2000 2000" style="enable-background:new 0 0 2000 2000;" xml:space="preserve">
<style type="text/css">
	.st0{fill:url(#SVGID_1_);}
	.st1{fill:#FFFFFF;}
	.st2{fill:url(#SVGID_2_);}
	.st3{fill:url(#SVGID_3_);}
	.st4{fill:url(#SVGID_4_);}
	.st5{fill:url(#SVGID_5_);}
	.st6{fill:url(#SVGID_6_);}
</style>
<linearGradient id="SVGID_1_" gradientUnits="userSpaceOnUse" x1="702.5566" y1="917.6896" x2="702.5566" y2="1081.7209">
	<stop  offset="0" style="stop-color:#06D6A0"/>
	<stop  offset="1" style="stop-color:#009FF5"/>
</linearGradient>
<path class="st0" d="M704.32,957.37c18.39,0,27.65,14.25,27.65,28.5c0,14.25-9.26,28.38-27.65,28.38h-18.76v28.38h-12.42v-85.27
	H704.32z M704.32,1002.07c10.35,0,15.47-8.04,15.47-16.08c0-8.16-5.12-16.2-15.47-16.2h-18.76v32.28H704.32z"/>
<path class="st1" d="M792.27,1017.54H761.7c-3.29,7.8-7.55,18.03-10.23,25.09h-13.28l34.23-86.37h9.01l34.23,86.37H802.5
	L792.27,1017.54z M766.33,1005.97h21.2l-10.48-30.09L766.33,1005.97z"/>
<path class="st1" d="M874.37,969.67h-15.84v60.66h15.84v12.3H830.4v-12.3h15.84v-60.66H830.4v-12.18h43.97V969.67z"/>
<path class="st1" d="M908.85,999.39h14.37c10.35,0,15.47-7.43,15.47-14.86c0-7.31-5.12-14.74-15.47-14.74h-18.88v72.84h-12.18
	v-85.27h31.06c18.52,0,27.77,13.64,27.77,27.16c0,12.06-7.43,23.51-22.05,26.07l26.92,32.04h-15.96l-31.06-37.4V999.39z"/>
<linearGradient id="SVGID_2_" gradientUnits="userSpaceOnUse" x1="1000.5089" y1="917.6896" x2="1000.5089" y2="1081.7209">
	<stop  offset="0" style="stop-color:#06D6A0"/>
	<stop  offset="1" style="stop-color:#009FF5"/>
</linearGradient>
<path class="st2" d="M1004.35,957.49c10.72,0,17.54,6.09,20.71,14.01c3.41,8.41,2.31,18.15-6.21,24.24
	c9.74,4.14,13.28,13.16,13.28,21.2c0,12.79-8.4,25.7-24.73,25.7H968.9v-85.15H1004.35z M981.08,991.35h23.02
	c13.4,0,13.64-22.17,0.24-22.17h-23.27V991.35z M981.08,1030.7h26.31c8.28,0,12.42-6.94,12.42-13.64c0-6.7-4.14-13.52-12.42-13.52
	h-26.31V1030.7z"/>
<path class="st1" d="M1060.01,969.18c7.8-7.92,18.76-12.91,30.7-12.91c12.06,0,22.9,4.99,30.82,12.91
	c7.67,7.92,12.67,18.76,12.67,30.82s-4.99,22.9-12.67,30.82c-7.92,8.04-18.76,12.91-30.82,12.91c-11.94,0-22.9-4.87-30.7-12.91
	c-7.67-7.92-12.67-18.76-12.67-30.82S1052.34,977.1,1060.01,969.18z M1112.76,977.95c-5.73-5.73-13.64-9.26-22.05-9.26
	c-8.4,0-16.2,3.53-21.8,9.26c-5.6,5.6-9.14,13.4-9.14,22.05s3.53,16.44,9.14,22.05c5.6,5.73,13.4,9.26,21.8,9.26
	c8.41,0,16.32-3.53,22.05-9.26c5.48-5.6,9.01-13.28,9.01-22.05C1121.77,991.23,1118.24,983.56,1112.76,977.95z"/>
<path class="st1" d="M1203.51,1017.54h-30.58c-3.29,7.8-7.55,18.03-10.23,25.09h-13.28l34.23-86.37h9.01l34.23,86.37h-13.16
	L1203.51,1017.54z M1177.56,1005.97h21.2l-10.48-30.09L1177.56,1005.97z"/>
<path class="st1" d="M1259.79,999.39h14.37c10.35,0,15.47-7.43,15.47-14.86c0-7.31-5.12-14.74-15.47-14.74h-18.88v72.84h-12.18
	v-85.27h31.06c18.52,0,27.77,13.64,27.77,27.16c0,12.06-7.43,23.51-22.05,26.07l26.92,32.04h-15.96l-31.06-37.4V999.39z"/>
<path class="st1" d="M1354.31,957.49c27.9,0,41.9,21.32,41.9,42.63s-14.01,42.51-41.9,42.51h-30.58v-85.15H1354.31z
	 M1354.31,1030.33c19.73,0,29.72-15.1,29.72-30.21s-9.99-30.33-29.72-30.33h-18.27v60.54H1354.31z"/>
<path class="st1" d="M1427.76,1035.57c0,3.65-3.17,7.43-7.67,7.43c-4.02,0-7.31-3.78-7.31-7.43c0-4.51,3.29-7.55,7.31-7.55
	C1424.6,1028.02,1427.76,1031.06,1427.76,1035.57z"/>
<linearGradient id="SVGID_3_" gradientUnits="userSpaceOnUse" x1="1482.6393" y1="917.6896" x2="1482.6393" y2="1081.7209">
	<stop  offset="0" style="stop-color:#06D6A0"/>
	<stop  offset="1" style="stop-color:#009FF5"/>
</linearGradient>
<path class="st3" d="M1476.97,957.49c27.9,0,41.9,21.32,41.9,42.63s-14.01,42.51-41.9,42.51h-30.58v-85.15H1476.97z
	 M1476.97,1030.33c19.73,0,29.72-15.1,29.72-30.21s-9.99-30.33-29.72-30.33h-18.27v60.54H1476.97z"/>
<linearGradient id="SVGID_4_" gradientUnits="userSpaceOnUse" x1="1563.2781" y1="917.6896" x2="1563.2781" y2="1081.7209">
	<stop  offset="0" style="stop-color:#06D6A0"/>
	<stop  offset="1" style="stop-color:#009FF5"/>
</linearGradient>
<path class="st4" d="M1549.7,1030.33h39.59v12.3h-52.01v-85.15h51.89v12.3h-39.47v24h38.61v12.42h-38.61V1030.33z"/>
<linearGradient id="SVGID_5_" gradientUnits="userSpaceOnUse" x1="1637.4015" y1="917.6896" x2="1637.4015" y2="1081.7209">
	<stop  offset="0" style="stop-color:#06D6A0"/>
	<stop  offset="1" style="stop-color:#009FF5"/>
</linearGradient>
<path class="st5" d="M1662.98,957.49h13.16l-34.23,85.39h-9.01l-34.23-85.39h13.4l25.34,63.71L1662.98,957.49z"/>
<g>
	<linearGradient id="SVGID_6_" gradientUnits="userSpaceOnUse" x1="525.983" y1="868.7031" x2="525.983" y2="1178.6746">
		<stop  offset="0" style="stop-color:#06D6A0"/>
		<stop  offset="1" style="stop-color:#009FF5"/>
	</linearGradient>
	<polygon class="st6" points="432.7,855.6 432.7,1144.4 454.56,1144.4 454.56,877.46 597.4,877.46 597.4,984.37 474.35,984.37 
		474.35,1006.23 619.26,1006.23 619.26,855.6 	"/>
</g>
<polygon class="st1" points="597.4,1035.78 597.4,1122.54 474.35,1122.54 474.35,1144.4 597.4,1144.4 619.26,1144.4 619.26,1122.54 
	619.26,1035.78 "/>
</svg>
